<svg xmlns="http://www.w3.org/2000/svg" height="24" viewBox="0 -960 960 960" width="24"><path d="M367.693-850.001v-59.998h224.614v59.998H367.693Zm82.308 442.308h59.998v-224.614h-59.998v224.614ZM480-100.001q-70.154 0-131.999-26.77-61.846-26.769-108.154-73.076-46.307-46.308-73.076-108.154-26.77-61.845-26.77-131.999t26.77-131.999q26.769-61.846 73.076-108.154 46.308-46.307 108.154-73.076 61.845-26.77 131.999-26.77 60.077 0 115.731 20.385 55.653 20.385 103.345 58.385l49.846-49.846 42.153 42.153-49.846 49.846q38 47.692 58.385 103.345Q819.999-500.077 819.999-440q0 70.154-26.77 131.999-26.769 61.846-73.076 108.154-46.308 46.307-108.154 73.076-61.845 26.77-131.999 26.77ZM480-160q116 0 198-82t82-198q0-116-82-198t-198-82q-116 0-198 82t-82 198q0 116 82 198t198 82Zm0-280Z"/></svg>